<?xml version="1.0" standalone="no"?>
<!DOCTYPE svg PUBLIC "-//W3C//DTD SVG 20010904//EN"
 "http://www.w3.org/TR/2001/REC-SVG-20010904/DTD/svg10.dtd">
<svg version="1.0" xmlns="http://www.w3.org/2000/svg"
 width="64.000000pt" height="64.000000pt" viewBox="0 0 64.000000 64.000000"
 preserveAspectRatio="xMidYMid meet">
<metadata>
Created by potrace 1.16, written by Peter Selinger 2001-2019
</metadata>
<g transform="translate(0.000000,64.000000) scale(0.100000,-0.100000)"
fill="#000000" stroke="none">
<path d="M252 620 c-25 -16 -50 -20 -112 -20 l-80 0 0 -290 0 -290 260 0 260
0 0 290 0 290 -80 0 c-62 0 -87 4 -112 20 -18 11 -49 20 -68 20 -19 0 -50 -9
-68 -20z m-52 -60 c0 -17 -7 -20 -40 -20 l-40 0 0 -230 0 -230 162 0 162 0 38
37 38 37 0 193 0 193 -40 0 c-34 0 -40 3 -40 20 0 19 5 21 58 18 l57 -3 0
-265 0 -265 -235 0 -235 0 -3 255 c-1 140 0 260 3 267 3 8 24 13 60 13 48 0
55 -2 55 -20z m0 -50 c0 -6 47 -10 120 -10 73 0 120 4 120 10 0 6 14 10 30 10
l30 0 0 -170 0 -170 -40 0 -40 0 0 -40 0 -40 -140 0 -140 0 0 210 0 210 30 0
c17 0 30 -4 30 -10z"/>
</g>
</svg>
